[Header]
FileType HTR
DataType HTRS
FileVersion 1
NumSegments 64
NumFrames 4
DataFrameRate 24
EulerRotationOrder ZYX
CalibrationUnits mm
RotationUnits Degrees
GlobalAxisofGravity Y
BoneLengthAxis Y
ScaleFactor 1.0
[SegmentNames&Hierarchy]
Hips	GLOBAL
Spine	Hips
Spine1	Spine
Spine2	Spine1
Neck	Spine2
Head	Neck
LeftEye	Head
RightEye	Head
LeftShoulder	Spine2
LeftArm	LeftShoulder
LeftForeArm	LeftArm
LeftHand	LeftForeArm
LeftHandThumb1	LeftHand
LeftHandThumb2	LeftHandThumb1
LeftHandThumb3	LeftHandThumb2
LeftHandThumb4	LeftHandThumb3
LeftHandIndex1	LeftHand
LeftHandIndex2	LeftHandIndex1
LeftHandIndex3	LeftHandIndex2
LeftHandIndex4	LeftHandIndex3
LeftHandMiddle1	LeftHand
LeftHandMiddle2	LeftHandMiddle1
LeftHandMiddle3	LeftHandMiddle2
LeftHandMiddle4	LeftHandMiddle3
LeftHandRing1	LeftHand
LeftHandRing2	LeftHandRing1
LeftHandRing3	LeftHandRing2
LeftHandRing4	LeftHandRing3
LeftHandPinky1	LeftHand
LeftHandPinky2	LeftHandPinky1
LeftHandPinky3	LeftHandPinky2
LeftHandPinky4	LeftHandPinky3
RightShoulder	Spine2
RightArm	RightShoulder
RightForeArm	RightArm
RightHand	RightForeArm
RightHandPinky1	RightHand
RightHandPinky2	RightHandPinky1
RightHandPinky3	RightHandPinky2
RightHandPinky4	RightHandPinky3
RightHandRing1	RightHand
RightHandRing2	RightHandRing1
RightHandRing3	RightHandRing2
RightHandRing4	RightHandRing3
RightHandMiddle1	RightHand
RightHandMiddle2	RightHandMiddle1
RightHandMiddle3	RightHandMiddle2
RightHandMiddle4	RightHandMiddle3
RightHandIndex1	RightHand
RightHandIndex2	RightHandIndex1
RightHandIndex3	RightHandIndex2
RightHandIndex4	RightHandIndex3
RightHandThumb1	RightHand
RightHandThumb2	RightHandThumb1
RightHandThumb3	RightHandThumb2
RightHandThumb4	RightHandThumb3
LeftUpLeg	Hips
LeftLeg	LeftUpLeg
LeftFoot	LeftLeg
LeftToeBase	LeftFoot
RightUpLeg	Hips
RightLeg	RightUpLeg
RightFoot	RightLeg
RightToeBase	RightFoot
[BasePosition]
Hips	0	0	0	0	0	0	1
Spine	0	0	0	0	0	0	1
Spine1	0	0	0	0	0	0	1
Spine2	0	0	0	0	0	0	1
Neck	0	0	0	0	0	0	1
Head	0	0	0	0	0	0	1
LeftEye	0	0	0	0	0	0	1
RightEye	0	0	0	0	0	0	1
LeftShoulder	0	0	0	0	0	0	1
LeftArm	0	0	0	0	0	0	1
LeftForeArm	0	0	0	0	0	0	1
LeftHand	0	0	0	0	0	0	1
LeftHandThumb1	0	0	0	0	0	0	1
LeftHandThumb2	0	0	0	0	0	0	1
LeftHandThumb3	0	0	0	0	0	0	1
LeftHandThumb4	0	0	0	0	0	0	1
LeftHandIndex1	0	0	0	0	0	0	1
LeftHandIndex2	0	0	0	0	0	0	1
LeftHandIndex3	0	0	0	0	0	0	1
LeftHandIndex4	0	0	0	0	0	0	1
LeftHandMiddle1	0	0	0	0	0	0	1
LeftHandMiddle2	0	0	0	0	0	0	1
LeftHandMiddle3	0	0	0	0	0	0	1
LeftHandMiddle4	0	0	0	0	0	0	1
LeftHandRing1	0	0	0	0	0	0	1
LeftHandRing2	0	0	0	0	0	0	1
LeftHandRing3	0	0	0	0	0	0	1
LeftHandRing4	0	0	0	0	0	0	1
LeftHandPinky1	0	0	0	0	0	0	1
LeftHandPinky2	0	0	0	0	0	0	1
LeftHandPinky3	0	0	0	0	0	0	1
LeftHandPinky4	0	0	0	0	0	0	1
RightShoulder	0	0	0	0	0	0	1
RightArm	0	0	0	0	0	0	1
RightForeArm	0	0	0	0	0	0	1
RightHand	0	0	0	0	0	0	1
RightHandPinky1	0	0	0	0	0	0	1
RightHandPinky2	0	0	0	0	0	0	1
RightHandPinky3	0	0	0	0	0	0	1
RightHandPinky4	0	0	0	0	0	0	1
RightHandRing1	0	0	0	0	0	0	1
RightHandRing2	0	0	0	0	0	0	1
RightHandRing3	0	0	0	0	0	0	1
RightHandRing4	0	0	0	0	0	0	1
RightHandMiddle1	0	0	0	0	0	0	1
RightHandMiddle2	0	0	0	0	0	0	1
RightHandMiddle3	0	0	0	0	0	0	1
RightHandMiddle4	0	0	0	0	0	0	1
RightHandIndex1	0	0	0	0	0	0	1
RightHandIndex2	0	0	0	0	0	0	1
RightHandIndex3	0	0	0	0	0	0	1
RightHandIndex4	0	0	0	0	0	0	1
RightHandThumb1	0	0	0	0	0	0	1
RightHandThumb2	0	0	0	0	0	0	1
RightHandThumb3	0	0	0	0	0	0	1
RightHandThumb4	0	0	0	0	0	0	1
LeftUpLeg	0	0	0	0	0	0	1
LeftLeg	0	0	0	0	0	0	1
LeftFoot	0	0	0	0	0	0	1
LeftToeBase	0	0	0	0	0	0	1
RightUpLeg	0	0	0	0	0	0	1
RightLeg	0	0	0	0	0	0	1
RightFoot	0	0	0	0	0	0	1
RightToeBase	0	0	0	0	0	0	1
[Hips]
18	-20.90929031	920.6928101	-163.7080078	-0.5647293925	-24.22888374	3.997240782	1.0
19	-24.17724419	970.5349121	-179.0117188	-0.3985463083	-20.5758419	4.167427063	1.0
20	-23.91350937	1006.125427	-191.4502106	-0.2853474021	-18.77663422	4.172465801	1.0
21	-22.97700119	1038.342896	-203.3868408	-0.1557206959	-17.32317543	4.144323349	1.0
[Spine]
18	0	101.8159943	1.315000057	2.751220226	0.5294871926	-0.5607999563	1.0
19	0	101.8159943	1.315000057	2.594549179	0.3481818438	-0.5562387705	1.0
20	0	101.8159943	1.315000057	2.618409634	0.2182124257	-0.6040582061	1.0
21	0	101.8159943	1.315000057	2.676343679	0.1003944725	-0.6603328586	1.0
[Spine1]
18	0	100.8349991	-10.00800037	5.506299496	1.319039941	0.720092535	1.0
19	0	100.8349991	-10.00800037	5.189075947	0.8718503118	0.1659680903	1.0
20	0	100.8349991	-10.00800037	5.236405373	0.548410356	-0.4197691679	1.0
21	0	100.8349991	-10.00800037	5.352526665	0.2542940974	-1.001920462	1.0
[Spine2]
18	0	91	-13.73399925	5.506298065	1.319035172	0.7200954556	1.0
19	0	91	-13.73399925	5.189077377	0.8718515038	0.1659660339	1.0
20	0	91	-13.73399925	5.236404419	0.5484126806	-0.4197711051	1.0
21	0	91	-13.73399925	5.35252285	0.2542966306	-1.001921535	1.0
[Neck]
18	0	166.7169952	-25.16200066	11.50531292	2.992278814	-0.6730024219	1.0
19	0	166.7169952	-25.16200066	12.88497829	2.521073341	0.04439337552	1.0
20	0	166.7169952	-25.16200066	13.6559639	2.279891968	0.381377399	1.0
21	0	166.7169952	-25.16200066	14.29923058	2.081978559	0.6322747469	1.0
[Head]
18	0	96.17900085	16.84999847	-11.88928413	17.30597878	-8.445989609	1.0
19	0	96.17900085	16.84999847	-9.011762619	15.80978584	-6.643640041	1.0
20	0	96.17900085	16.84999847	-8.858338356	14.55074692	-5.520240307	1.0
21	0	96.17900085	16.84999847	-9.259214401	13.31781864	-4.539527416	1.0
[LeftEye]
18	30.6760006	64.09500122	92.83599854	0	0	0	1.0
19	30.6760006	64.09500122	92.83599854	0	0	0	1.0
20	30.6760006	64.09500122	92.83599854	0	0	0	1.0
21	30.6760006	64.09500122	92.83599854	0	0	0	1.0
[RightEye]
18	-30.6760006	64.09500122	92.83499908	0	0	0	1.0
19	-30.6760006	64.09500122	92.83499908	0	0	0	1.0
20	-30.6760006	64.09500122	92.83499908	0	0	0	1.0
21	-30.6760006	64.09500122	92.83499908	0	0	0	1.0
[LeftShoulder]
18	45.70400238	109.4599991	-26.28000069	0.3557575643	-19.51807404	-0.3944438994	1.0
19	45.70400238	109.4599991	-26.28000069	-0.6153634191	-18.10424805	3.173993587	1.0
20	45.70400238	109.4599991	-26.28000069	-0.993876636	-16.22328949	5.110506535	1.0
21	45.70400238	109.4599991	-26.28000069	-1.246665716	-14.30840206	6.666613102	1.0
[LeftArm]
18	105.923996	-5.24600029	-22.32099915	1.23226738	-6.103572369	-44.75312805	1.0
19	105.923996	-5.24600029	-22.32099915	-6.300470352	-18.34955788	-38.03689194	1.0
20	105.923996	-5.24600029	-22.32099915	-2.838884115	-19.3778019	-39.98616028	1.0
21	105.923996	-5.24600029	-22.32099915	2.625450611	-18.04810905	-43.57101822	1.0
[LeftForeArm]
18	278.414978	-0.0009999999311	0	-183.1796875	-70.13616943	181.6733704	1.0
19	278.414978	-0.0009999999311	0	-183.0611572	-66.80474854	181.0224609	1.0
20	278.414978	-0.0009999999311	0	-183.039917	-66.40844727	180.7608643	1.0
21	278.414978	-0.0009999999311	0	-183.5518951	-69.58692169	181.330719	1.0
[LeftHand]
18	283.2879944	0	0	23.10422897	-2.851800442	17.74127388	1.0
19	283.2879944	0	0	22.93070602	6.715110779	12.85092068	1.0
20	283.2879944	0	0	20.04994583	5.221683025	13.05344105	1.0
21	283.2879944	0	0	16.73413658	1.708201289	14.19370174	1.0
[LeftHandThumb1]
18	24.6609993	-15.75	26.8239994	-4.570383072	2.490223646	11.32879925	1.0
19	24.6609993	-15.75	26.8239994	-3.099789619	4.688676834	11.66374111	1.0
20	24.6609993	-15.75	26.8239994	-2.090017319	6.105283737	11.98125648	1.0
21	24.6609993	-15.75	26.8239994	-1.188981295	7.339263439	12.28936291	1.0
[LeftHandThumb2]
18	32.29800034	-18.64699936	18.64699936	3.331543684	10.8195219	4.537727833	1.0
19	32.29800034	-18.64699936	18.64699936	3.720588446	14.02985573	6.660928726	1.0
20	32.29800034	-18.64699936	18.64699936	3.975761414	16.13252258	8.011226654	1.0
21	32.29800034	-18.64699936	18.64699936	4.200090408	17.9764328	9.180976868	1.0
[LeftHandThumb3]
18	26.52600098	-15.31499958	15.31499958	3.601811159e-06	-8.438974328e-05	-6.943767221e-05	1.0
19	26.52600098	-15.31499958	15.31499958	3.601811159e-06	-8.438974328e-05	-6.943767221e-05	1.0
20	26.52600098	-15.31499958	15.31499958	3.601811159e-06	-8.438974328e-05	-6.943767221e-05	1.0
21	26.52600098	-15.31499958	15.31499958	3.601811159e-06	-8.438974328e-05	-6.943767221e-05	1.0
[LeftHandThumb4]
18	19.54599953	-11.28499985	11.28499985	0	0	0	1.0
19	19.54599953	-11.28499985	11.28499985	0	0	0	1.0
20	19.54599953	-11.28499985	11.28499985	0	0	0	1.0
21	19.54599953	-11.28499985	11.28499985	0	0	0	1.0
[LeftHandIndex1]
18	91.09299469	-5.170999527	22.60099792	-0.07774247229	-1.279283762	-11.13664341	1.0
19	91.09299469	-5.170999527	22.60099792	-0.1999708563	-1.662393212	-12.98301792	1.0
20	91.09299469	-5.170999527	22.60099792	-0.2759872675	-1.91762054	-14.19583035	1.0
21	91.09299469	-5.170999527	22.60099792	-0.3415343761	-2.14266777	-15.26050949	1.0
[LeftHandIndex2]
18	36.76399994	0	0	-0.6676424742	-0.3938790858	-25.6318779	1.0
19	36.76399994	0	0	-0.9353684783	-1.293905854	-32.21222305	1.0
20	36.76399994	0	0	-1.036409259	-1.901435256	-36.53742218	1.0
21	36.76399994	0	0	-1.104344964	-2.439309597	-40.33512115	1.0
[LeftHandIndex3]
18	28.83100128	0	0	-1.432096042e-06	3.907105395e-07	1.552835329e-06	1.0
19	28.83100128	0	0	-1.432096042e-06	3.907105395e-07	1.552835329e-06	1.0
20	28.83100128	0	0	-1.432096042e-06	3.907105395e-07	1.552835329e-06	1.0
21	28.83100128	0	0	-1.432096042e-06	3.907105395e-07	1.552835329e-06	1.0
[LeftHandIndex4]
18	23.92700005	0	0	0	0	0	1.0
19	23.92700005	0	0	0	0	0	1.0
20	23.92700005	0	0	0	0	0	1.0
21	23.92700005	0	0	0	0	0	1.0
[LeftHandMiddle1]
18	95.33399963	0	0	-0.8224964142	-0.2429666221	-19.74272919	1.0
19	95.33399963	0	0	-1.003528357	-0.5678641796	-22.54595566	1.0
20	95.33399963	0	0	-1.111106515	-0.7873657942	-24.38803101	1.0
21	95.33399963	0	0	-1.202399492	-0.9817483425	-26.0053215	1.0
[LeftHandMiddle2]
18	36.98199844	0	0	-0.5336017609	-1.868997335	-23.51974106	1.0
19	36.98199844	0	0	-0.6659117937	-2.710169315	-30.49507332	1.0
20	36.98199844	0	0	-0.679309845	-3.268325329	-35.08325195	1.0
21	36.98199844	0	0	-0.6706685424	-3.759883642	-39.11278915	1.0
[LeftHandMiddle3]
18	29.50900078	0	0	0	-3.180554719e-15	-7.951386796e-16	1.0
19	29.50900078	0	0	0	-3.180554719e-15	-7.951386796e-16	1.0
20	29.50900078	0	0	0	-3.180554719e-15	-7.951386796e-16	1.0
21	29.50900078	0	0	0	-3.180554719e-15	-7.951386796e-16	1.0
[LeftHandMiddle4]
18	28.3390007	0	0	0	0	0	1.0
19	28.3390007	0	0	0	0	0	1.0
20	28.3390007	0	0	0	0	0	1.0
21	28.3390007	0	0	0	0	0	1.0
[LeftHandRing1]
18	91.04499817	-0.4390000105	-18.65100098	-3.018058062	5.276416302	-30.94044113	1.0
19	91.04499817	-0.4390000105	-18.65100098	-3.107013702	4.779601574	-33.98147202	1.0
20	91.04499817	-0.4390000105	-18.65100098	-3.150957346	4.448843002	-35.97846603	1.0
21	91.04499817	-0.4390000105	-18.65100098	-3.18551302	4.157254696	-37.73139954	1.0
[LeftHandRing2]
18	31.54000092	0	0	1.666349292	-2.495627403	-32.45561981	1.0
19	31.54000092	0	0	2.239011526	-2.686244249	-39.4588356	1.0
20	31.54000092	0	0	2.627766609	-2.760620832	-44.06385803	1.0
21	31.54000092	0	0	2.972545385	-2.811806202	-48.10777664	1.0
[LeftHandRing3]
18	29.37700081	0	0	1.590277359e-15	3.180554719e-15	-7.951386796e-16	1.0
19	29.37700081	0	0	1.590277359e-15	3.180554719e-15	-7.951386796e-16	1.0
20	29.37700081	0	0	1.590277359e-15	3.180554719e-15	-7.951386796e-16	1.0
21	29.37700081	0	0	1.590277359e-15	3.180554719e-15	-7.951386796e-16	1.0
[LeftHandRing4]
18	26.47500038	0	0	0	0	0	1.0
19	26.47500038	0	0	0	0	0	1.0
20	26.47500038	0	0	0	0	0	1.0
21	26.47500038	0	0	0	0	0	1.0
[LeftHandPinky1]
18	80.77799988	-4.887000084	-38.06099701	-3.843279839	10.34374905	-29.82902527	1.0
19	80.77799988	-4.887000084	-38.06099701	-3.856921196	9.407043457	-32.87987518	1.0
20	80.77799988	-4.887000084	-38.06099701	-3.851665258	8.786989212	-34.87892151	1.0
21	80.77799988	-4.887000084	-38.06099701	-3.843076944	8.24136734	-36.63223267	1.0
[LeftHandPinky2]
18	36	0	0	4.548556328	-4.614849567	-42.06852341	1.0
19	36	0	0	5.116419792	-4.36322546	-46.08013153	1.0
20	36	0	0	5.476463795	-4.16907692	-48.72696304	1.0
21	36	0	0	5.789007664	-3.990557909	-51.05472946	1.0
[LeftHandPinky3]
18	21.14200211	0	0	3.226109357e-06	2.925280342e-06	-5.739977951e-06	1.0
19	21.14200211	0	0	3.226109357e-06	2.925280342e-06	-5.739977951e-06	1.0
20	21.14200211	0	0	3.226109357e-06	2.925280342e-06	-5.739977951e-06	1.0
21	21.14200211	0	0	3.226109357e-06	2.925280342e-06	-5.739977951e-06	1.0
[LeftHandPinky4]
18	19.75699997	0	0	0	0	0	1.0
19	19.75699997	0	0	0	0	0	1.0
20	19.75699997	0	0	0	0	0	1.0
21	19.75699997	0	0	0	0	0	1.0
[RightShoulder]
18	-45.70000076	109.4620056	-26.28000069	0.7739127278	2.370497465	9.821074486	1.0
19	-45.70000076	109.4620056	-26.28000069	0.6004007459	1.833868742	9.429305077	1.0
20	-45.70000076	109.4620056	-26.28000069	0.6139263511	2.116346836	9.104215622	1.0
21	-45.70000076	109.4620056	-26.28000069	0.6607374549	2.53915143	8.789921761	1.0
[RightArm]
18	-105.9280014	-5.248000145	-22.32099915	42.99132919	44.91119766	57.5251503	1.0
19	-105.9280014	-5.248000145	-22.32099915	41.15237808	50.76029205	59.17720032	1.0
20	-105.9280014	-5.248000145	-22.32099915	37.22561264	50.59024429	58.27193451	1.0
21	-105.9280014	-5.248000145	-22.32099915	32.94120789	49.03070068	56.81087875	1.0
[RightForeArm]
18	-278.414978	0	0	-0.2058941573	78.71172333	0.8447421193	1.0
19	-278.414978	0	0	-0.4621239007	85.88461304	0.8828635812	1.0
20	-278.414978	0	0	-0.9326786995	88.06056976	0.4644293189	1.0
21	-278.414978	0	0	-1.248231173	86.26509857	0.08182535321	1.0
[RightHand]
18	-283.2879944	0	0.0009999999311	27.61507797	13.08319664	-4.338199139	1.0
19	-283.2879944	0	0.0009999999311	29.19855309	13.53697205	-0.3958390653	1.0
20	-283.2879944	0	0.0009999999311	28.37848473	14.44356632	0.6925747991	1.0
21	-283.2879944	0	0.0009999999311	27.01893425	15.34146404	1.242073059	1.0
[RightHandPinky1]
18	-80.76699829	-4.885000229	-38.06000137	-0.7854112387	-10.06537151	32.12922668	1.0
19	-80.76699829	-4.885000229	-38.06000137	-0.8366611004	-8.925532341	36.76088333	1.0
20	-80.76699829	-4.885000229	-38.06000137	-0.8364840746	-8.168602943	39.79552078	1.0
21	-80.76699829	-4.885000229	-38.06000137	-0.8269111514	-7.501863956	42.45716095	1.0
[RightHandPinky2]
18	-36	0	0.0009999999311	5.249134541	6.738852501	41.28421402	1.0
19	-36	0	0.0009999999311	5.873639107	6.668586254	44.76157379	1.0
20	-36	0	0.0009999999311	6.281312466	6.595077991	47.05905151	1.0
21	-36	0	0.0009999999311	6.638600826	6.5229249	49.08058167	1.0
[RightHandPinky3]
18	-21.14200211	0	0	-1.590277359e-15	0	-7.951386796e-16	1.0
19	-21.14200211	0	0	-1.590277359e-15	0	-7.951386796e-16	1.0
20	-21.14200211	0	0	-1.590277359e-15	0	-7.951386796e-16	1.0
21	-21.14200211	0	0	-1.590277359e-15	0	-7.951386796e-16	1.0
[RightHandPinky4]
18	-19.75699997	0	0	0	0	0	1.0
19	-19.75699997	0	0	0	0	0	1.0
20	-19.75699997	0	0	0	0	0	1.0
21	-19.75699997	0	0	0	0	0	1.0
[RightHandRing1]
18	-91.03599548	-0.4390000105	-18.65100098	-1.702444553	-5.507866383	31.76222229	1.0
19	-91.03599548	-0.4390000105	-18.65100098	-1.905330658	-5.102797508	36.04411316	1.0
20	-91.03599548	-0.4390000105	-18.65100098	-2.009429693	-4.829504013	38.85579681	1.0
21	-91.03599548	-0.4390000105	-18.65100098	-2.092717886	-4.587584019	41.32380295	1.0
[RightHandRing2]
18	-31.54000092	0	0	1.6585356	3.065165281	30.02249336	1.0
19	-31.54000092	0	0	2.208771467	3.37326479	35.87134552	1.0
20	-31.54000092	0	0	2.590087652	3.534407854	39.71905136	1.0
21	-31.54000092	0	0	2.930356979	3.664426804	43.09840775	1.0
[RightHandRing3]
18	-29.37700081	0	0	5.740008078e-07	-7.531911024e-07	-2.69121324e-06	1.0
19	-29.37700081	0	0	5.740008078e-07	-7.531911024e-07	-2.69121324e-06	1.0
20	-29.37700081	0	0	5.740008078e-07	-7.531911024e-07	-2.69121324e-06	1.0
21	-29.37700081	0	0	5.740008078e-07	-7.531911024e-07	-2.69121324e-06	1.0
[RightHandRing4]
18	-26.47500038	0	0	0	0	0	1.0
19	-26.47500038	0	0	0	0	0	1.0
20	-26.47500038	0	0	0	0	0	1.0
21	-26.47500038	0	0	0	0	0	1.0
[RightHandMiddle1]
18	-95.32500458	0	0	-2.055049658	0.4148579836	21.2449379	1.0
19	-95.32500458	0	0	-2.194921017	0.6797205806	23.49871445	1.0
20	-95.32500458	0	0	-2.27942276	0.857550025	24.97984695	1.0
21	-95.32500458	0	0	-2.351556778	1.014728904	26.28026962	1.0
[RightHandMiddle2]
18	-36.98199844	0	0	-0.7200239897	1.716556787	26.49391747	1.0
19	-36.98199844	0	0	-0.8857434392	2.49996376	34.01296234	1.0
20	-36.98199844	0	0	-0.9204614758	3.023642778	38.95801544	1.0
21	-36.98199844	0	0	-0.9303631186	3.485898495	43.30076218	1.0
[RightHandMiddle3]
18	-29.50900078	0	0	1.856611448e-06	-0.002022909233	1.577868488e-06	1.0
19	-29.50900078	0	0	1.856611448e-06	-0.002022909233	1.577868488e-06	1.0
20	-29.50900078	0	0	1.856611448e-06	-0.002022909233	1.577868488e-06	1.0
21	-29.50900078	0	0	1.856611448e-06	-0.002022909233	1.577868488e-06	1.0
[RightHandMiddle4]
18	-28.3390007	0	0.0009999999311	0	0	0	1.0
19	-28.3390007	0	0.0009999999311	0	0	0	1.0
20	-28.3390007	0	0.0009999999311	0	0	0	1.0
21	-28.3390007	0	0.0009999999311	0	0	0	1.0
[RightHandIndex1]
18	-91.08300018	-5.167999744	22.60099792	-1.329450607	1.312183261	11.46064854	1.0
19	-91.08300018	-5.167999744	22.60099792	-1.470075727	1.721541286	13.55055332	1.0
20	-91.08300018	-5.167999744	22.60099792	-1.556900024	1.994916201	14.92331886	1.0
21	-91.08300018	-5.167999744	22.60099792	-1.63158071	2.236145735	16.12841034	1.0
[RightHandIndex2]
18	-36.76399994	0	0	-0.6766932607	-0.3486334085	23.76064301	1.0
19	-36.76399994	0	0	-0.9678530693	0.2499461472	28.94808006	1.0
20	-36.76399994	0	0	-1.119626045	0.6596736312	32.35628891	1.0
21	-36.76399994	0	0	-1.241905689	1.023954749	35.34843826	1.0
[RightHandIndex3]
18	-28.83100128	0	0	-3.180554719e-15	0	0	1.0
19	-28.83100128	0	0	-3.180554719e-15	0	0	1.0
20	-28.83100128	0	0	-3.180554719e-15	0	0	1.0
21	-28.83100128	0	0	-3.180554719e-15	0	0	1.0
[RightHandIndex4]
18	-23.92700005	0	0	0	0	0	1.0
19	-23.92700005	0	0	0	0	0	1.0
20	-23.92700005	0	0	0	0	0	1.0
21	-23.92700005	0	0	0	0	0	1.0
[RightHandThumb1]
18	-24.64799881	-15.72700024	26.82600021	-6.942369938	-1.084514618	-10.88487625	1.0
19	-24.64799881	-15.72700024	26.82600021	-7.261717319	-2.222348928	-10.75683689	1.0
20	-24.64799881	-15.72700024	26.82600021	-7.439316273	-2.946544886	-10.69231319	1.0
21	-24.64799881	-15.72700024	26.82600021	-7.58396101	-3.574082375	-10.64357281	1.0
[RightHandThumb2]
18	-32.29800034	-18.64699936	18.64699936	6.019869804	-11.08099079	-4.295771122	1.0
19	-32.29800034	-18.64699936	18.64699936	8.498869896	-14.46099758	-6.536789417	1.0
20	-32.29800034	-18.64699936	18.64699936	10.19130516	-16.65295219	-8.161168098	1.0
21	-32.29800034	-18.64699936	18.64699936	11.69517708	-18.56945229	-9.626094818	1.0
[RightHandThumb3]
18	-26.52600098	-15.31399918	15.31399918	-3.81245151e-08	-0.00121095567	-0.001221005921	1.0
19	-26.52600098	-15.31399918	15.31399918	-3.81245151e-08	-0.00121095567	-0.001221005921	1.0
20	-26.52600098	-15.31399918	15.31399918	-3.81245151e-08	-0.00121095567	-0.001221005921	1.0
21	-26.52600098	-15.31399918	15.31399918	-3.81245151e-08	-0.00121095567	-0.001221005921	1.0
[RightHandThumb4]
18	-19.54599953	-11.28499985	11.28499985	0	0	0	1.0
19	-19.54599953	-11.28499985	11.28499985	0	0	0	1.0
20	-19.54599953	-11.28499985	11.28499985	0	0	0	1.0
21	-19.54599953	-11.28499985	11.28499985	0	0	0	1.0
[LeftUpLeg]
18	82.07800293	-67.51699829	-15.99599934	-45.02390671	14.98753929	5.233178139	1.0
19	82.07800293	-67.51699829	-15.99599934	-41.00426483	14.45736885	3.547288895	1.0
20	82.07800293	-67.51699829	-15.99599934	-37.72711563	14.60807323	2.849786282	1.0
21	82.07800293	-67.51699829	-15.99599934	-34.64020538	14.89877033	2.346551657	1.0
[LeftLeg]
18	0	-443.7049866	2.845999956	37.29428101	-5.832336426	-3.649448156	1.0
19	0	-443.7049866	2.845999956	35.43153	-4.985134602	-3.342642546	1.0
20	0	-443.7049866	2.845999956	39.45306396	-3.467756987	-3.248945951	1.0
21	0	-443.7049866	2.845999956	44.51974487	-1.821438789	-3.185147524	1.0
[LeftFoot]
18	0	-444.2789917	-29.8219986	7.401302814	3.560345888	-30.30155754	1.0
19	0	-444.2789917	-29.8219986	5.927537918	2.758140802	-27.4146595	1.0
20	0	-444.2789917	-29.8219986	2.327413082	1.812384963	-22.92736244	1.0
21	0	-444.2789917	-29.8219986	-1.627505422	0.8522017002	-18.21993446	1.0
[LeftToeBase]
18	0	-87.28699493	107.1060028	4.324360847	-9.378165942e-07	6.908738669e-06	1.0
19	0	-87.28699493	107.1060028	4.736368656	2.387236009e-06	8.557388355e-06	1.0
20	0	-87.28699493	107.1060028	3.85970664	1.57703812e-06	6.191354259e-06	1.0
21	0	-87.28699493	107.1060028	2.743741274	1.999452159e-08	3.143890126e-06	1.0
[RightUpLeg]
18	-82.07800293	-67.51699829	-15.99599934	-29.94822693	-13.1036377	-2.418770075	1.0
19	-82.07800293	-67.51699829	-15.99599934	-23.70332718	-14.08442688	-2.265196085	1.0
20	-82.07800293	-67.51699829	-15.99599934	-22.22936058	-13.32066822	-3.135605097	1.0
21	-82.07800293	-67.51699829	-15.99599934	-21.70745277	-12.22317505	-4.187505245	1.0
[RightLeg]
18	0	-443.7049866	2.861999989	59.5808754	-10.29689789	-17.38474655	1.0
19	0	-443.7049866	2.861999989	46.31689835	-15.41132927	-14.86900997	1.0
20	0	-443.7049866	2.861999989	41.34311676	-12.50491905	-10.78292274	1.0
21	0	-443.7049866	2.861999989	37.98589325	-8.08062458	-6.435070515	1.0
[RightFoot]
18	0	-444.2770081	-29.83799934	-27.75687218	-0.9784339666	10.72213554	1.0
19	0	-444.2770081	-29.83799934	-21.09306145	-3.522418022	7.915858269	1.0
20	0	-444.2770081	-29.83799934	-13.44530869	-4.041029453	12.44456005	1.0
21	0	-444.2770081	-29.83799934	-5.810902119	-4.138337612	18.27904892	1.0
[RightToeBase]
18	0	-87.28699493	107.1060028	-7.641330242	1.490299655e-05	-6.586515156e-06	1.0
19	0	-87.28699493	107.1060028	-9.424860954	8.5888787e-06	3.581197632e-07	1.0
20	0	-87.28699493	107.1060028	-10.21855545	4.70098621e-06	-4.232843821e-06	1.0
21	0	-87.28699493	107.1060028	-10.77369785	1.378548291e-06	-1.073257044e-05	1.0
[EndOfFile]
